<svg width="30" height="30" viewBox="0 0 30 30" fill="none" xmlns="http://www.w3.org/2000/svg">
<path d="M23.8625 18.0512V23.6012C23.8622 24.3865 23.5501 25.1395 22.9948 25.6948C22.4396 26.2501 21.6865 26.5622 20.9013 26.5625H6.40002C6.00972 26.5623 5.62329 26.4851 5.26294 26.3351C4.9026 26.1851 4.57544 25.9654 4.30026 25.6886C4.02509 25.4118 3.80732 25.0834 3.65948 24.7221C3.51164 24.3609 3.43663 23.974 3.43877 23.5837V9.09874C3.43645 8.70905 3.51149 8.32278 3.65955 7.9623C3.80761 7.60183 4.02573 7.27432 4.30129 6.99876C4.57685 6.72321 4.90436 6.50508 5.26483 6.35702C5.62531 6.20896 6.01158 6.13392 6.40127 6.13624H11.95" stroke="black" stroke-width="1.875" stroke-linecap="round" stroke-linejoin="round"/>
<path d="M23.8625 11.2437L18.7563 6.13625M8.54376 19.7537V17.0475C8.54626 16.6012 8.72376 16.1725 9.03751 15.8562L20.9525 3.94125C21.1108 3.78168 21.2991 3.65503 21.5065 3.5686C21.714 3.48217 21.9365 3.43768 22.1613 3.43768C22.386 3.43768 22.6085 3.48217 22.816 3.5686C23.0234 3.65503 23.2117 3.78168 23.37 3.94125L26.0588 6.63C26.2186 6.78809 26.3455 6.97634 26.4322 7.18382C26.5188 7.3913 26.5634 7.61391 26.5634 7.83875C26.5634 8.06359 26.5188 8.28619 26.4322 8.49368C26.3455 8.70116 26.2186 8.8894 26.0588 9.0475L14.1438 20.9625C13.8269 21.277 13.399 21.4544 12.9525 21.4562H10.2463C9.79473 21.4562 9.36169 21.2769 9.04241 20.9576C8.72313 20.6383 8.54376 20.2053 8.54376 19.7537Z" stroke="black" stroke-width="1.875" stroke-linecap="round" stroke-linejoin="round"/>
</svg>
