<svg width="30" height="30" viewBox="0 0 30 30" fill="none" xmlns="http://www.w3.org/2000/svg">
<path d="M20.8725 27.495H6.37249C5.86047 27.4971 5.35324 27.3964 4.88086 27.1989C4.40847 27.0014 3.98056 26.711 3.62249 26.345C3.26121 25.9821 2.9757 25.551 2.78256 25.0767C2.58943 24.6025 2.49252 24.0945 2.49749 23.5825V9.095C2.4911 8.58535 2.58868 8.07975 2.78425 7.60908C2.97983 7.13841 3.2693 6.71254 3.63499 6.3575C3.99079 5.99675 4.41602 5.71185 4.88499 5.52C5.35969 5.32002 5.86989 5.21798 6.38499 5.22H11.935C12.1836 5.22 12.4221 5.31877 12.5979 5.49459C12.7737 5.6704 12.8725 5.90886 12.8725 6.1575C12.8725 6.40614 12.7737 6.6446 12.5979 6.82041C12.4221 6.99623 12.1836 7.095 11.935 7.095H6.38499C6.11613 7.10231 5.85021 7.15296 5.59749 7.245C5.22916 7.40047 4.9151 7.66149 4.69488 7.99516C4.47466 8.32882 4.35813 8.72021 4.35999 9.12V23.6075C4.35686 23.8761 4.40719 24.1426 4.50805 24.3915C4.60891 24.6405 4.75829 24.8668 4.94749 25.0575C5.13665 25.2452 5.361 25.3937 5.60768 25.4945C5.85436 25.5953 6.11851 25.6465 6.38499 25.645H20.885C21.1512 25.645 21.4137 25.595 21.66 25.495C21.9044 25.3953 22.1256 25.2464 22.31 25.0575C22.5003 24.8743 22.6494 24.6527 22.7475 24.4075C22.8576 24.1597 22.913 23.8911 22.91 23.62V18.07C22.91 17.8214 23.0088 17.5829 23.1846 17.4071C23.3604 17.2313 23.5988 17.1325 23.8475 17.1325C24.0961 17.1325 24.3346 17.2313 24.5104 17.4071C24.6862 17.5829 24.785 17.8214 24.785 18.07V23.6575C24.7871 24.1695 24.6864 24.6767 24.4889 25.1491C24.2913 25.6215 24.001 26.0494 23.635 26.4075C23.2769 26.7687 22.8525 27.0573 22.385 27.2575C21.9012 27.4325 21.3875 27.5138 20.8725 27.495Z" fill="black"/>
<path d="M27.26 6.82C27.134 6.49737 26.9376 6.20697 26.685 5.97L23.9975 3.2825C23.7605 3.02991 23.4701 2.83346 23.1475 2.7075C22.6639 2.50371 22.1303 2.44957 21.6155 2.55207C21.1008 2.65456 20.6287 2.90899 20.26 3.2825L18.1225 5.42V5.4825L8.4475 15.145C7.9602 15.6376 7.6863 16.3021 7.685 16.995V19.7075C7.68828 20.406 7.96722 21.0749 8.46114 21.5689C8.95505 22.0628 9.624 22.3417 10.3225 22.345H13.035C13.3794 22.3454 13.7205 22.2771 14.0381 22.144C14.3558 22.011 14.6437 21.8158 14.885 21.57L24.56 11.895L26.71 9.745C26.9625 9.5075 27.16 9.2175 27.285 8.895C27.4281 8.57442 27.502 8.2273 27.502 7.87625C27.502 7.5252 27.4281 7.17808 27.285 6.8575L27.26 6.82ZM25.535 8.1325C25.4958 8.22769 25.436 8.31305 25.36 8.3825L23.835 9.9075L20.085 6.1575L21.6225 4.62C21.7701 4.47716 21.9671 4.3966 22.1725 4.395C22.2716 4.39631 22.3693 4.41757 22.46 4.4575C22.555 4.4975 22.6412 4.5575 22.71 4.6325L25.41 7.32C25.4783 7.39326 25.5333 7.47786 25.5725 7.57C25.5914 7.6649 25.5914 7.76259 25.5725 7.8575C25.5772 7.9507 25.5645 8.04396 25.535 8.1325Z" fill="black"/>
</svg>
