<svg width="54" height="40" viewBox="0 0 54 40" fill="none" xmlns="http://www.w3.org/2000/svg">
<path d="M15.2497 19.7427C16.0848 20.176 16.9199 20.6455 17.755 21.151C18.6265 21.6565 19.4253 22.144 20.1514 22.6134C20.8776 23.0467 21.4767 23.462 21.9487 23.8592C22.457 24.2203 22.7838 24.5091 22.9291 24.7258C23.1106 25.0147 23.2014 25.466 23.2014 26.0799C23.2014 26.6576 23.1469 27.3076 23.038 28.0298C22.9654 28.7159 22.8383 29.4019 22.6567 30.088C22.4752 30.738 22.2755 31.2616 22.0576 31.6588C21.8035 32.1643 21.2225 32.8143 20.3148 33.6087C19.4434 34.4031 18.4631 35.1975 17.3738 35.9919C16.2845 36.7863 15.2134 37.4904 14.1605 38.1043C13.1438 38.7181 12.3632 39.0973 11.8185 39.2417C11.4191 39.35 10.82 39.4584 10.0213 39.5667C9.25877 39.675 8.45997 39.7653 7.62487 39.8375C6.78976 39.9097 6.02728 39.9639 5.33741 40C4.68385 40 4.28445 39.9639 4.13921 39.8917C3.84874 39.7111 3.59458 39.4403 3.37673 39.0792C3.19518 38.7181 3.10441 38.2487 3.10441 37.671C3.17703 36.4071 3.32226 35.5405 3.54012 35.0711C3.61273 34.9628 3.70351 34.9086 3.81243 34.9086C3.92136 34.8725 4.1029 34.8544 4.35707 34.8544C4.61123 34.8544 4.93801 34.8544 5.33741 34.8544C5.7368 34.8544 6.26328 34.8364 6.91684 34.8003C6.7353 32.9587 6.57191 31.2074 6.42667 29.5464C6.28144 27.8854 6.15436 26.4229 6.04543 25.1591C5.90019 23.6786 5.79127 22.2884 5.71865 20.9885C5.64603 19.7247 5.53711 18.3164 5.39187 16.7637C5.28294 15.4277 5.15586 13.875 5.01063 12.1056C4.86539 10.3363 4.702 8.42248 4.52046 6.36425C4.19368 6.36425 3.81243 6.36425 3.37673 6.36425C2.94102 6.36425 2.50531 6.36425 2.06961 6.36425C1.67021 6.32814 1.32527 6.29203 1.0348 6.25592C0.708023 6.18371 0.508324 6.09343 0.435707 5.98511C0.290471 5.76845 0.181544 5.37125 0.108927 4.7935C0.0363089 4.17964 0 3.58384 0 3.00609C0 2.39224 0.108927 1.79643 0.32678 1.21869C0.544633 0.60483 0.798796 0.207628 1.08927 0.0270819C1.16188 -0.00902731 1.45236 -0.00902731 1.96068 0.0270819C2.469 0.0270819 3.08626 0.0812458 3.81243 0.189573C4.53861 0.261792 5.31925 0.37012 6.15436 0.514557C7.02577 0.622884 7.84272 0.749267 8.60521 0.893703C9.36769 1.00203 10.0394 1.11036 10.6203 1.21869C11.2013 1.32701 11.6007 1.39923 11.8185 1.43534C12.1816 1.50756 12.8715 1.70616 13.8882 2.03114C14.9411 2.32002 16.0667 2.66306 17.2649 3.06026C18.4631 3.45746 19.6068 3.90882 20.6961 4.41435C21.7853 4.88377 22.5478 5.35319 22.9835 5.82261C23.1651 6.00316 23.3285 6.50869 23.4737 7.3392C23.6552 8.16971 23.7823 9.0905 23.8549 10.1016C23.9639 11.1126 24.0002 12.0695 23.9639 12.9722C23.9639 13.8389 23.8731 14.4166 23.6915 14.7055C23.5463 14.9221 23.038 15.3013 22.1666 15.8429C21.2952 16.3846 20.333 16.9443 19.28 17.522C18.0818 18.172 16.7384 18.9122 15.2497 19.7427ZM11.1105 18.6594C11.5825 18.4428 12.2179 18.0095 13.0167 17.3595C13.8518 16.7095 14.6688 15.9874 15.4676 15.193C16.3027 14.3624 17.0107 13.5319 17.5917 12.7014C18.2089 11.8348 18.5175 11.0946 18.5175 10.4807C18.5175 10.3002 18.3178 10.0654 17.9184 9.77657C17.5553 9.4877 17.047 9.19883 16.3935 8.90995C15.7399 8.62108 14.9593 8.3322 14.0515 8.04333C13.1801 7.71835 12.2361 7.42947 11.2194 7.17671L11.1105 18.6594ZM11.0561 34.2045C12.0727 33.9878 13.0349 33.6448 13.9426 33.1754C14.8503 32.7059 15.6491 32.2004 16.339 31.6588C17.0289 31.081 17.5735 30.5033 17.9729 29.9255C18.3723 29.3478 18.572 28.8242 18.572 28.3548C18.572 27.8854 18.2634 27.3618 17.6461 26.784C17.0652 26.2063 16.3572 25.6285 15.522 25.0508C14.7233 24.473 13.9063 23.9494 13.0712 23.48C12.2361 23.0106 11.5825 22.6676 11.1105 22.4509L11.0561 34.2045Z" fill="#334CAF"/>
<path d="M31.8625 15.5049H29.6869C29.4022 15.8554 29.2599 16.2936 29.2599 16.8193C29.2599 17.3451 29.409 17.7562 29.7072 18.0528H31.8625V15.5049ZM27.4909 9.84301H32.5335C33.3468 10.3283 33.8822 10.8878 34.1398 11.5214C34.3973 12.1415 34.5261 12.9908 34.5261 14.0692V17.1024C34.5261 18.2213 34.5532 19.2459 34.6075 20.176H32.2895L31.9235 19.4481C31.3948 19.9334 30.6493 20.176 29.6869 20.176H28.4059C27.2537 19.4211 26.6776 18.3359 26.6776 16.9204C26.6776 15.4915 27.2673 14.3658 28.4466 13.5435H30.3579C30.8865 13.5435 31.3813 13.7053 31.8422 14.0288V13.0177C31.8422 12.492 31.6117 12.1415 31.1508 11.9662H27.4909V9.84301Z" fill="#334CAF"/>
<path d="M38.7962 14.9185C38.7962 15.4847 38.8843 16.0644 39.0605 16.6575C39.2368 17.2372 39.4807 17.7023 39.7925 18.0528H42.8425V20.176H38.3895C36.79 18.9088 35.9903 17.1563 35.9903 14.9185C35.9903 12.6807 36.8442 10.9889 38.5522 9.84301H42.8425V11.9662H39.7925C39.1283 12.6538 38.7962 13.6379 38.7962 14.9185Z" fill="#334CAF"/>
<path d="M48.9986 15.5049H46.823C46.5383 15.8554 46.396 16.2936 46.396 16.8193C46.396 17.3451 46.5451 17.7562 46.8433 18.0528H48.9986V15.5049ZM44.627 9.84301H49.6696C50.4829 10.3283 51.0183 10.8878 51.2759 11.5214C51.5334 12.1415 51.6622 12.9908 51.6622 14.0692V17.1024C51.6622 18.2213 51.6893 19.2459 51.7435 20.176H49.4256L49.0596 19.4481C48.5309 19.9334 47.7854 20.176 46.823 20.176H45.542C44.3898 19.4211 43.8137 18.3359 43.8137 16.9204C43.8137 15.4915 44.4033 14.3658 45.5827 13.5435H47.494C48.0226 13.5435 48.5174 13.7053 48.9783 14.0288V13.0177C48.9783 12.492 48.7478 12.1415 48.2869 11.9662H44.627V9.84301Z" fill="#334CAF"/>
<path d="M30.5612 36.9307H28.4262C27.8298 36.1758 27.4231 35.4209 27.2062 34.6659C26.9894 33.911 26.8809 32.9674 26.8809 31.835V26.5977H29.5852V32.0372C29.5852 33.2639 29.8292 34.1874 30.3172 34.8075H32.2082V26.5977H34.9124V36.9307H32.7775L32.4115 36.2028C31.8964 36.6881 31.2796 36.9307 30.5612 36.9307Z" fill="#334CAF"/>
<path d="M36.6522 36.9307V22.7759H39.3565V30.278H39.6411L41.5524 26.5977H44.1957L41.7964 31.107L44.2161 36.9307H41.5321L39.6615 32.4012H39.3565V36.9307H36.6522Z" fill="#334CAF"/>
<path d="M48.71 36.9307H46.575C45.9786 36.1758 45.5719 35.4209 45.355 34.6659C45.1381 33.911 45.0297 32.9674 45.0297 31.835V26.5977H47.734V32.0372C47.734 33.2639 47.978 34.1874 48.466 34.8075H50.3569V26.5977H53.0612V36.9307H50.9263L50.5603 36.2028C50.0452 36.6881 49.4284 36.9307 48.71 36.9307Z" fill="#334CAF"/>
</svg>
