<svg width="30" height="30" viewBox="0 0 30 30" fill="none" xmlns="http://www.w3.org/2000/svg">
<path d="M15 25.625C21.2131 25.625 26.25 20.4237 26.25 16.875C26.25 13.3263 21.2131 8.125 15 8.125C8.78688 8.125 3.75 13.33 3.75 16.875C3.75 20.42 8.78688 25.625 15 25.625Z" stroke="#FF4646" stroke-width="2.5" stroke-linejoin="round"/>
<path d="M15 20.625C15.9946 20.625 16.9484 20.2299 17.6517 19.5267C18.3549 18.8234 18.75 17.8696 18.75 16.875C18.75 15.8804 18.3549 14.9266 17.6517 14.2233C16.9484 13.5201 15.9946 13.125 15 13.125C14.0054 13.125 13.0516 13.5201 12.3483 14.2233C11.6451 14.9266 11.25 15.8804 11.25 16.875C11.25 17.8696 11.6451 18.8234 12.3483 19.5267C13.0516 20.2299 14.0054 20.625 15 20.625Z" stroke="#FF4646" stroke-width="2.5" stroke-linejoin="round"/>
<path d="M8.28998 7.04125L9.91123 9.30375M22.2656 7.31875L20.6437 9.58125M15.0056 4.375V8.125" stroke="#FF4646" stroke-width="2.5" stroke-linecap="round"/>
</svg>
